<?xml version="1.0" standalone="no"?>
<!DOCTYPE svg PUBLIC "-//W3C//DTD SVG 1.1//EN" "http://www.w3.org/Graphics/SVG/1.1/DTD/svg11.dtd" >
<svg>
<metadata>
Created by FontForge 20090622 at Sun Jun  3 20:12:51 2018
 By deploy user
Typeface &#194;&#169; (your company). 2013. All Rights Reserved
</metadata>
<defs>
<font id="SilentReaction" horiz-adv-x="557" >
  <font-face 
    font-family="Silent Reaction"
    font-weight="400"
    font-stretch="normal"
    units-per-em="2048"
    panose-1="2 0 5 0 0 0 0 0 0 0"
    ascent="1638"
    descent="-410"
    x-height="647"
    cap-height="2198"
    bbox="-857 -674 3279 2205"
    underline-thickness="150"
    underline-position="-142"
    unicode-range="U+0020-U+F002"
  />
<missing-glyph horiz-adv-x="1557" 
d="M1509 2196l11 -14v-24q-28 -85 -53 -326q-38 -290 -84 -883q-10 -53 -80 -659l-49 -274q-11 -52 -53 -52h-10q-6 0 -14 14v10q80 276 178 1343q31 444 74 715q3 54 14 91h-119q-262 0 -1097 -95h-60l-42 4l7 -176q-3 -260 -3 -322q24 -808 35 -1367q16 -319 42 -319
q429 88 851 154h25q7 -1 7 -7v-17q0 -24 -414 -95l-497 -98q-49 0 -49 56q-17 0 -35 719q0 182 -21 872v438q0 52 -4 141q4 7 4 66q28 14 49 14q61 -7 66 -10q26 0 410 42q496 52 761 52q119 7 150 7zM952 1923h53q241 0 308 -147q11 -38 11 -74v-31q0 -157 -179 -379
q-181 -193 -319 -193l-31 4q0 -41 -106 -316q-59 -147 -122 -266q-2 0 -21 -21h-32q-7 0 -7 7v21q0 12 105 256q116 283 116 361q-4 36 -4 56l7 3h35q36 0 36 -35q19 -14 24 -14q84 14 203 120q98 96 148 175q85 152 91 242q0 76 -70 133q-81 49 -207 49h-21
q-213 0 -424 -161q-127 -127 -127 -228q15 -91 120 -91q12 0 98 24h17q21 -2 21 -10v-21q-45 -39 -119 -39h-59q-111 10 -134 98q-3 13 -3 32v10q0 214 277 361q153 74 315 74zM469 367q40 0 59 -53v-28q0 -57 -63 -119q-21 -11 -28 -11q-59 0 -70 92q0 73 77 119h25z" />
    <glyph glyph-name=".notdef" horiz-adv-x="1557" 
d="M1509 2196l11 -14v-24q-28 -85 -53 -326q-38 -290 -84 -883q-10 -53 -80 -659l-49 -274q-11 -52 -53 -52h-10q-6 0 -14 14v10q80 276 178 1343q31 444 74 715q3 54 14 91h-119q-262 0 -1097 -95h-60l-42 4l7 -176q-3 -260 -3 -322q24 -808 35 -1367q16 -319 42 -319
q429 88 851 154h25q7 -1 7 -7v-17q0 -24 -414 -95l-497 -98q-49 0 -49 56q-17 0 -35 719q0 182 -21 872v438q0 52 -4 141q4 7 4 66q28 14 49 14q61 -7 66 -10q26 0 410 42q496 52 761 52q119 7 150 7zM952 1923h53q241 0 308 -147q11 -38 11 -74v-31q0 -157 -179 -379
q-181 -193 -319 -193l-31 4q0 -41 -106 -316q-59 -147 -122 -266q-2 0 -21 -21h-32q-7 0 -7 7v21q0 12 105 256q116 283 116 361q-4 36 -4 56l7 3h35q36 0 36 -35q19 -14 24 -14q84 14 203 120q98 96 148 175q85 152 91 242q0 76 -70 133q-81 49 -207 49h-21
q-213 0 -424 -161q-127 -127 -127 -228q15 -91 120 -91q12 0 98 24h17q21 -2 21 -10v-21q-45 -39 -119 -39h-59q-111 10 -134 98q-3 13 -3 32v10q0 214 277 361q153 74 315 74zM469 367q40 0 59 -53v-28q0 -57 -63 -119q-21 -11 -28 -11q-59 0 -70 92q0 73 77 119h25z" />
    <glyph glyph-name=".null" horiz-adv-x="0" 
 />
    <glyph glyph-name="nonmarkingreturn" horiz-adv-x="508" 
 />
    <glyph glyph-name="space" unicode=" " horiz-adv-x="508" 
 />
    <glyph glyph-name="space" unicode="&#xa0;" horiz-adv-x="508" 
 />
    <glyph glyph-name="exclam" unicode="!" horiz-adv-x="695" 
d="M585 2198h77q9 0 19 -19v-70q0 -117 -261 -1037q-108 -426 -178 -783q-19 -32 -26 -32h-63q-13 0 -13 20q0 353 414 1806q15 115 31 115zM102 16q89 -14 89 -89v-26q0 -75 -83 -108h-32q-56 0 -76 95q6 13 6 20l-6 12q0 78 102 96z" />
    <glyph glyph-name="quotedbl" unicode="&#x22;" horiz-adv-x="672" 
d="M235 2195h48q37 0 37 -69q0 -23 5 -68q-19 -449 -53 -449h-37q-21 11 -21 27l21 443q-10 60 -10 111zM457 2195q26 0 26 -116q5 -41 5 -137q0 -359 -42 -359h-47q-11 0 -11 16l11 322v26q0 115 -16 211v16q0 21 74 21z" />
    <glyph glyph-name="numbersign" unicode="#" horiz-adv-x="2826" 
d="M1403 2201q64 0 64 -64v-9q0 -100 -274 -647v-27h19q95 0 291 9q246 485 374 711h109q14 0 37 -37v-45q0 -102 -146 -310q0 -22 -155 -310h9q594 9 902 9q146 -6 146 -36v-64q0 -41 -1148 -73l-155 -309h9q23 0 73 9q533 9 838 9h9q67 0 73 -28v-54q0 -48 -401 -64
q-560 -18 -692 -27q-489 -984 -510 -1012l-46 -36h-82q-18 0 -18 18v55q0 44 200 492q140 267 237 483h-282q-21 0 -292 -547q-158 -329 -237 -392h-73q-18 0 -18 19v118q196 417 392 783v19q-621 0 -647 45l-9 91q0 49 36 64h37q257 -36 556 -36h109q46 54 155 282l-46 -9
h-82q-195 0 -428 -9q-319 12 -319 82v91q0 13 28 27h72q122 -36 301 -36q151 0 547 9q246 529 364 756h73zM1111 1290q-145 -254 -145 -282q91 -9 136 -9h155l155 300h-9q-96 0 -292 -9z" />
    <glyph glyph-name="dollar" unicode="$" horiz-adv-x="1634" 
d="M859 2201h57q51 0 51 -51v-37q0 -18 -13 -38q63 6 95 6h170q256 0 380 -221q6 -43 6 -70v-38q0 -109 -108 -189q-71 -87 -233 -158q-26 -13 -101 -25h-83q-25 10 -25 44v44q0 11 120 38q296 171 310 291q-35 84 -164 139q-89 25 -127 25h-44q-95 -328 -152 -613
q455 -182 455 -442v-70q0 -195 -234 -429q-191 -160 -505 -222q-88 -346 -101 -366l-32 -6h-38q-12 0 -12 12v76q0 69 44 265v7h-82q-16 0 -82 -329q-13 -44 -26 -44h-50q-33 0 -38 19v38q0 28 57 322q-354 98 -354 322v82q0 97 114 228l50 32h51q12 -2 12 -13v-44
l-107 -253v-19q0 -59 95 -133q62 -49 170 -76q203 862 247 1030q-360 95 -360 285v57q0 141 271 284q236 76 259 88q34 152 57 152zM783 1424q65 -25 95 -25l127 549q-114 0 -114 -69q0 -19 -108 -455zM398 1626q0 -83 265 -164v6l102 423h-7q-294 -104 -347 -240zM752 1291
l-240 -992h82q21 0 88 322q165 627 165 645q-65 25 -95 25zM967 1215q-108 -402 -221 -884q275 76 442 252q145 201 145 297q0 183 -366 335z" />
    <glyph glyph-name="percent" unicode="%" horiz-adv-x="2529" 
d="M1388 2196q80 0 111 -37v-49q-10 -25 -43 -25q-16 0 -68 12q-317 -46 -611 -308q-185 -199 -185 -376q29 -142 123 -142q0 -6 37 -6q194 14 475 271q179 181 179 265q-21 66 -68 86q-30 0 -30 13q-83 -19 -142 -19h-31q-9 0 -19 19v49q0 31 148 49h81q178 -34 178 -178
v-19q0 -265 -481 -561q-168 -80 -277 -80h-31q-213 0 -259 185q-6 54 -6 68q0 363 425 629q270 154 494 154zM2418 2184h31q33 0 49 -31v-19q0 -44 -315 -308l-1042 -950q-883 -821 -1048 -950h-37q-48 0 -56 25v61q57 33 1443 1314q72 56 290 265q679 593 685 593z
M1783 938h61q117 0 117 -68v-56q0 -12 -12 -12h-80q-15 0 -56 18q-157 -13 -357 -148q-203 -142 -315 -320q-91 -154 -105 -253v-25q0 -106 142 -148h12q205 10 531 290q271 268 271 413v6l-31 7q-187 -50 -222 -50q-49 4 -49 19v61q117 93 271 93h7q160 0 160 -105
q6 0 6 -37v-18q0 -265 -506 -654q-234 -136 -388 -136q0 -6 -74 -6q-180 0 -247 148q-12 24 -12 68v80q0 325 431 666q233 167 445 167z" />
    <glyph glyph-name="ampersand" unicode="&#x26;" horiz-adv-x="1881" 
d="M1568 2194q114 -12 199 -68q73 -77 73 -183v-6q0 -308 -497 -649l-545 -362q81 -209 115 -225q170 98 409 136h162q143 0 241 -110q26 -59 26 -78v-53q0 -180 -382 -461q107 -113 293 -288v-31q-5 -16 -31 -16h-21q-42 0 -320 288q-284 -188 -592 -188h-68
q-211 0 -398 162q-89 107 -89 230q0 273 456 598l94 73q-37 165 -37 267q0 390 325 718q274 246 587 246zM745 1230q0 -121 27 -215h5q434 282 660 451q319 285 319 477q0 134 -162 167q-8 0 -63 5q-202 0 -487 -241q-299 -320 -299 -644zM719 874q-163 -122 -283 -236
q-204 -209 -204 -346h-5q0 -199 304 -303q95 -16 152 -16q261 0 544 188q-288 307 -340 409h-11q-111 -66 -230 -194q-37 -45 -52 -131h-42q-32 20 -32 58q0 154 309 346v5q-60 102 -105 220h-5zM960 622v-5q106 -163 341 -408q263 179 340 345q18 23 26 79q0 57 -104 105
q-17 10 -126 26q-237 -14 -477 -142z" />
    <glyph glyph-name="quotesingle" unicode="'" horiz-adv-x="672" 
d="M375 2195q26 0 26 -116q6 -41 6 -137q0 -359 -43 -359h-47q-11 0 -11 16l11 322v26q0 115 -16 211v16q0 21 74 21z" />
    <glyph glyph-name="parenleft" unicode="(" horiz-adv-x="1399" 
d="M1359 2201q10 -2 10 -10v-39q0 -5 -166 -102q-125 -64 -448 -375q-472 -468 -472 -974q7 -188 92 -395q56 -104 117 -180q117 -128 258 -214q122 -65 127 -78v-24q0 -10 -10 -10h-14q-149 0 -429 282q-224 274 -224 663v39q0 333 248 691q55 95 307 341q336 315 526 385
h78z" />
    <glyph glyph-name="parenright" unicode=")" horiz-adv-x="1308" 
d="M124 2201q179 -70 494 -385q237 -246 289 -341q233 -358 233 -691v-39q0 -389 -211 -663q-262 -282 -402 -282h-14q-9 0 -9 10v24q5 13 119 78q133 86 242 214q57 76 110 180q80 207 87 395q0 506 -444 974q-303 311 -420 375q-156 97 -156 102v39q0 8 9 10h73z" />
    <glyph glyph-name="asterisk" unicode="*" horiz-adv-x="946" 
d="M469 2205h32q13 0 16 -144q-8 -174 -8 -248q209 200 256 200h20q8 -1 8 -8v-20q0 -27 -112 -120q-144 -141 -144 -144l160 -220q52 -57 52 -76v-24q0 -6 -12 -12h-8q-55 0 -164 152l-108 128q-26 -22 -184 -196l-16 -12h-20q-16 7 -16 28v4q0 48 176 236v4
q-54 34 -212 180l-16 40v16q1 8 8 8h24q21 0 236 -168v28q16 295 16 356z" />
    <glyph glyph-name="plus" unicode="+" horiz-adv-x="1431" 
d="M705 1119h20q32 0 32 -164q0 -34 -4 -152q-4 0 -4 -4h4l476 40q8 -19 8 -48q-84 -23 -496 -72q-38 -412 -60 -412h-24q-8 0 -16 24q0 22 -4 56q12 156 32 324q-230 -24 -328 -24q-128 0 -128 60v24q1 8 8 8h32q63 -16 88 -16q62 0 332 24v4q8 73 8 160v20q0 63 -12 100
v32q5 16 36 16z" />
    <glyph glyph-name="comma" unicode="," 
d="M257 269h40q73 0 114 -102q0 -26 6 -34q0 -91 -80 -262q-48 -80 -57 -80v-11l6 -11q-12 0 -34 -52q-4 0 -29 -28q-5 0 -5 6l-12 -6h-40q-11 0 -11 11v69q102 240 131 335q0 38 -68 91v51q9 23 39 23z" />
    <glyph glyph-name="hyphen" unicode="-" horiz-adv-x="919" 
d="M67 549h20q70 -20 186 -20h10l551 20q21 -7 30 -25v-25q0 -37 -601 -60h-91q-120 0 -120 65v30q0 7 15 15z" />
    <glyph glyph-name="hyphen" unicode="&#xad;" horiz-adv-x="919" 
d="M67 549h20q70 -20 186 -20h10l551 20q21 -7 30 -25v-25q0 -37 -601 -60h-91q-120 0 -120 65v30q0 7 15 15z" />
    <glyph glyph-name="period" unicode="." 
d="M282 255h12q106 -24 106 -105v-12q-48 -135 -123 -135h-47q-29 13 -53 53v35q0 21 6 53l-6 11q14 94 59 94q22 6 46 6z" />
    <glyph glyph-name="slash" unicode="/" horiz-adv-x="1103" 
d="M1024 1442h45q13 -2 13 -13v-32q0 -66 -372 -570q-270 -386 -525 -788q-38 -64 -70 -64h-26q-34 0 -64 32v51q117 149 500 724q364 506 499 660z" />
    <glyph glyph-name="zero" unicode="0" horiz-adv-x="1838" 
d="M1374 2198h40q81 -10 81 -32v-48q0 -21 -161 -81q-249 -148 -587 -482q-284 -320 -361 -506q-95 -121 -193 -426q-48 -183 -48 -265q0 -273 217 -418l88 -24h8q371 0 876 634q269 348 394 627q145 343 145 483q0 265 -201 265q-231 0 -708 -362h-56q-16 0 -16 16v56
q147 173 297 250q245 152 442 152h65q212 0 297 -193q16 -60 16 -112v-129q-39 -406 -410 -964l-185 -233q-362 -454 -691 -571q-110 -32 -152 -32h-89q-341 0 -450 330q-24 81 -32 265q35 419 321 868q148 234 491 570q442 362 562 362z" />
    <glyph glyph-name="one" unicode="1" horiz-adv-x="1491" 
d="M1704 2199h99q50 -5 50 -25v-57q-141 -312 -355 -676q-298 -488 -832 -1285q-54 -53 -107 -165h8q339 33 552 33h107q116 -9 116 -33v-50q0 -43 -396 -57q-456 -33 -848 -91q-124 11 -124 41v58q0 36 363 74q654 935 1062 1631q157 279 157 289q-164 -123 -412 -330
q-195 -140 -371 -140h-33q-42 0 -49 25v66q0 13 165 58q57 0 774 585z" />
    <glyph glyph-name="two" unicode="2" horiz-adv-x="1689" 
d="M1514 2195q523 0 669 -273q25 -44 33 -173q0 -255 -404 -677q-321 -337 -702 -587q-420 -279 -677 -421v-8h41q307 0 1164 -173l8 -17v-41q-8 -25 -49 -25h-66q-531 83 -1074 140q-148 0 -388 -74h-24q-83 0 -83 66v41q4 18 149 75q409 227 957 594q306 210 694 611
q306 379 306 537q0 147 -223 240q-133 41 -256 41q-428 0 -1008 -306q-394 -274 -421 -479q16 -41 66 -41h50q157 0 627 223h58q12 0 25 -25v-74q0 -56 -454 -207q-121 -41 -306 -41q-214 27 -214 149v91q0 166 371 454q345 258 1016 371q76 0 115 9z" />
    <glyph glyph-name="three" unicode="3" horiz-adv-x="1593" 
d="M1436 2199h30q396 0 474 -244v-69q0 -279 -902 -634v-8q225 0 528 -168q122 -92 122 -183v-84q0 -279 -825 -726q-595 -283 -749 -283h-46q-84 11 -84 31v53q0 13 229 69q584 209 1039 550q298 229 298 390q-41 102 -267 183q-315 69 -382 69h-69q-111 -16 -122 -16h-31
q-41 0 -61 39v76q0 21 115 38q726 264 955 489q115 111 115 168q0 72 -214 138q-107 8 -138 8q-294 0 -733 -199q-283 -149 -283 -329h-77q-53 25 -53 115v8q0 180 435 374q372 145 696 145z" />
    <glyph glyph-name="four" unicode="4" horiz-adv-x="1279" 
d="M1461 2198h16q71 -16 71 -39v-56q0 -61 -569 -1175h182q367 0 836 126h63q16 -3 16 -16v-32q0 -89 -607 -173q-206 -24 -426 -24q-100 8 -119 8q-312 -651 -505 -978q-36 -32 -110 -32h-16q-43 0 -63 39v56q106 56 126 158q112 172 402 765q-395 52 -639 189
q-126 36 -126 95v32q0 26 229 86q424 177 821 505q282 266 323 403q0 63 95 63zM269 1109q142 -113 521 -166h24l347 687h-8q-248 -213 -631 -410q-219 -111 -253 -111z" />
    <glyph glyph-name="five" unicode="5" horiz-adv-x="1852" 
d="M870 2198q175 -68 490 -256q172 -76 377 -76q302 40 362 91q117 37 136 37q41 0 60 -37v-46q-252 -143 -596 -143q-334 0 -716 264l-98 45q-108 -271 -189 -437q-139 -260 -158 -317q360 91 581 91h52q666 0 785 -438q0 -4 7 -98q0 -405 -543 -807q-292 -189 -618 -248
q-153 -23 -181 -23h-68q-408 0 -528 196q-22 46 -30 174q0 229 317 490q302 218 656 218h105q179 0 227 -60v-23q0 -17 -53 -30q-127 8 -196 8h-83q-246 0 -596 -234q-241 -246 -241 -392q0 -196 339 -226q5 0 98 -8q237 0 626 181q452 269 618 656q23 114 23 143
q0 151 -211 310q-233 98 -460 98q-258 0 -619 -129l-188 -113h-68q-10 0 -38 38v83q196 211 453 829q45 189 120 189h46z" />
    <glyph glyph-name="six" unicode="6" horiz-adv-x="1683" 
d="M1878 2198h9q92 -13 92 -42v-25q0 -56 -227 -176q-415 -253 -997 -788q-522 -548 -579 -814l-33 -151q0 -124 142 -226q77 -42 151 -42q455 0 1132 704q235 299 235 462q-55 109 -151 109h-51q-360 -97 -670 -470q-187 -244 -210 -386h-8l8 -83v-51q0 -12 -25 -25h-50
q-67 42 -67 126v42q0 309 494 746q312 235 528 235h118q160 0 226 -176q9 -46 9 -93q0 -374 -663 -913q-461 -361 -830 -361h-8q-360 0 -445 293q-8 46 -8 76v75q0 584 1300 1593q487 361 578 361z" />
    <glyph glyph-name="seven" unicode="7" horiz-adv-x="1575" 
d="M471 2198h52q56 0 138 -138q119 -78 440 -78q247 0 1001 112h69q129 0 129 -77v-52q-1 -82 -517 -518q-276 -235 -276 -250h17q518 0 518 -60v-61q-9 -26 -52 -26q-138 0 -647 9q-695 -631 -1148 -1157q-54 -65 -104 -95h-86q-26 6 -26 70q0 95 665 750q7 23 457 440
q-343 18 -501 61q-26 31 -26 60v61q0 21 35 26q409 -69 639 -69q247 203 794 716v8q-330 -60 -863 -103l-35 9l-43 -9q-482 0 -596 147q-51 89 -51 112v95q2 17 17 17z" />
    <glyph glyph-name="eight" unicode="8" horiz-adv-x="1976" 
d="M1643 2194h17q254 0 306 -89q0 -80 -32 -80q-46 0 -186 32h-129q-369 0 -870 -355q-102 -102 -113 -169q0 -142 548 -330q749 217 991 362l41 49v8q-58 56 -129 56h-73q-8 0 -8 8l-16 -8h-16q-180 -2 -516 -105l-81 8h-56q-16 0 -16 25q0 96 97 96q350 121 588 121
q292 0 371 -137q16 -51 16 -56q0 -194 -258 -274q-71 -57 -677 -234v-8q653 -236 653 -605q0 -429 -701 -653q-92 -24 -355 -56l-16 8q-7 0 -65 -8q-550 0 -838 250q-129 113 -129 306q0 512 983 774q0 8 -241 113q-242 120 -242 314q0 301 757 581q163 56 395 56zM119 394
v-57q0 -18 -8 -32q48 -151 137 -202q44 -56 290 -137q96 -24 234 -40h73q695 0 1039 419q57 103 57 161q0 286 -734 532q-609 -171 -870 -362q-202 -171 -202 -266q-16 -3 -16 -16z" />
    <glyph glyph-name="nine" unicode="9" horiz-adv-x="1136" 
d="M1190 2198q72 -16 72 -66v-19q0 -18 -114 -24l-12 6q-189 0 -496 -175q-342 -222 -501 -634q-24 -96 -24 -175q29 -175 127 -175h24q231 0 1075 984q31 67 91 67t60 -73q6 0 6 -6q-132 -168 -453 -791q-271 -478 -489 -936l-188 -357q-42 -18 -84 -24q-18 43 -18 48
q186 456 803 1577h-12q-6 -32 -399 -399q-251 -199 -435 -199q-92 0 -169 115q-54 119 -54 205v12q0 376 471 785q375 254 719 254z" />
    <glyph glyph-name="colon" unicode=":" 
d="M335 967h16q79 0 104 -92v-24q0 -69 -124 -168q-34 -16 -44 -16h-32q-72 25 -72 80v20q0 89 116 192q26 8 36 8zM315 375q61 0 84 -76v-32q-47 -188 -132 -188q-62 0 -100 88q0 50 -4 72q45 136 152 136z" />
    <glyph glyph-name="semicolon" unicode=";" 
d="M320 906q75 -12 100 -40q12 -19 12 -52v-24q-44 -136 -72 -136q-49 -16 -64 -16q-85 0 -108 56q-4 48 -4 72q0 120 116 140h20zM382 267h10q38 0 70 -47l5 -33v-47q-31 -145 -216 -381q-59 -61 -113 -61h-29q-9 0 -9 9v28q144 128 179 212q-104 13 -104 94q0 165 141 221
q30 5 66 5z" />
    <glyph glyph-name="semicolon" unicode="&#x37e;" 
d="M320 906q75 -12 100 -40q12 -19 12 -52v-24q-44 -136 -72 -136q-49 -16 -64 -16q-85 0 -108 56q-4 48 -4 72q0 120 116 140h20zM382 267h10q38 0 70 -47l5 -33v-47q-31 -145 -216 -381q-59 -61 -113 -61h-29q-9 0 -9 9v28q144 128 179 212q-104 13 -104 94q0 165 141 221
q30 5 66 5z" />
    <glyph glyph-name="less" unicode="&#x3c;" horiz-adv-x="1541" 
d="M1441 1092h47q18 -6 18 -35v-6q0 -68 -41 -83q-182 -150 -480 -213q-163 -58 -592 -107v-6q479 -154 900 -254q53 -22 53 -30v-53q0 -9 -18 -18h-59q-161 0 -923 237q-222 89 -237 89q-65 34 -65 41q-6 32 -6 53v36q2 12 12 12h106q509 0 1095 225q171 112 190 112z" />
    <glyph glyph-name="equal" unicode="=" horiz-adv-x="1448" 
d="M76 913h50q61 -19 95 -19h126q251 0 858 19l31 -7l32 7q82 -7 132 -7l13 -18v-45q0 -42 -694 -56q0 -7 -271 -7h-50q-56 0 -127 -6q-214 0 -214 82v38q0 9 19 19zM51 673h25q163 -31 422 -31h593q218 0 246 -38v-38q0 -6 -25 -25q-213 -7 -933 -13q-341 10 -341 50v82
q2 13 13 13z" />
    <glyph glyph-name="greater" unicode="&#x3e;" horiz-adv-x="1803" 
d="M332 980q681 -225 1272 -225h123q12 0 14 -12v-36q0 -21 -7 -53q0 -7 -75 -41q-18 0 -275 -89q-885 -237 -1072 -237h-69q-20 9 -20 18v53q0 8 61 30q489 100 1045 254v6q-499 49 -687 107q-346 63 -557 213q-48 15 -48 83v6q0 29 21 35h55q21 0 219 -112z" />
    <glyph glyph-name="question" unicode="?" horiz-adv-x="1566" 
d="M970 2198h66q179 0 317 -71q86 -55 118 -151q9 -68 9 -123q0 -259 -288 -576q-224 -213 -359 -213h-71q-28 -144 -104 -326q-116 -306 -203 -458q-27 -28 -33 -28h-56q-15 4 -15 28v10q0 55 71 193q118 283 184 468q25 54 48 194q-10 17 -10 37v29q8 19 33 19h48
q47 0 47 -48q24 -19 28 -19q294 116 463 416q15 0 90 180l23 104q0 179 -226 226q-18 9 -114 19q-190 0 -392 -85q-91 -36 -236 -151q-117 -136 -118 -179q-28 -42 -28 -104q0 -74 127 -104h19q13 0 113 28h67q6 0 14 -14v-52q0 -30 -189 -52h-52q-150 0 -199 127
q-9 44 -9 76q0 338 468 539q184 61 349 61zM314 86q64 0 80 -85v-14q-37 -184 -128 -184q-74 0 -89 123q0 100 104 160h33z" />
    <glyph glyph-name="at" unicode="@" horiz-adv-x="2239" 
d="M1406 2202h109q191 -23 309 -77q227 -104 337 -351q54 -153 54 -277v-50q0 -283 -141 -510q-75 -155 -259 -355q-194 -218 -418 -218h-9q-123 0 -173 132q-14 49 -14 127q0 83 18 160v4h-4q-254 -359 -473 -359h-55q-129 0 -155 173v77q0 191 264 432q258 191 455 191h64
q53 0 113 -36h10q45 184 45 246v36q0 169 -173 218h-18q-132 0 -255 -132q-73 -108 -73 -182q0 -6 23 -50h73q9 -1 9 -9v-41q-22 -32 -50 -32h-59q-91 32 -91 123v69q22 140 150 259q116 77 241 77q314 0 314 -314v-32q0 -141 -64 -354q-18 -36 -22 -82l-23 -19h-9
q-33 0 -50 10q-18 -21 -100 -360q-9 -52 -9 -73v-36q0 -61 59 -123q42 -18 50 -18q219 28 500 419q223 321 223 600q0 297 -227 510q-222 150 -442 150q-361 0 -764 -337q-258 -248 -323 -373q-202 -278 -277 -719q-5 -127 -10 -127q0 -470 319 -642q113 -45 205 -45
q167 16 341 132q105 69 268 245q22 28 59 28q32 -5 32 -14v-23q-26 -114 -277 -304q-203 -146 -432 -146q-382 0 -542 368q-59 160 -59 314v146q0 435 341 933q323 394 605 514q70 48 246 95q118 32 214 32zM628 651v-28q0 -83 86 -118q82 0 250 150q168 174 255 323
q91 123 123 205l23 5q0 12 -73 36q-195 -23 -400 -168q-173 -162 -201 -237q-63 -110 -63 -168z" />
    <glyph glyph-name="A" unicode="A" horiz-adv-x="1489" 
d="M1171 2198q43 -21 74 -61q-95 -428 -95 -667q0 -415 48 -443q-14 -43 -14 -54q95 -672 320 -1279q110 -286 184 -286l7 -14v-20q-32 -48 -89 -48q-140 0 -238 306q-95 227 -259 905l-75 388q-13 7 -20 7q-298 27 -422 27q-98 -172 -354 -701q-87 -197 -156 -197h-7
q-75 10 -75 34v27q57 59 197 375l232 456q-13 6 -21 6q-67 0 -279 -6q-81 28 -81 88q0 48 47 48h14q7 0 7 -7l13 7h7q21 0 21 -7q65 13 183 13h157q79 107 122 232q28 27 123 218l374 626q39 27 55 27zM667 1095v-6q244 -28 347 -28q0 17 -14 334v54q0 164 21 279
q-21 0 -198 -313q-156 -291 -156 -320z" />
    <glyph glyph-name="B" unicode="B" horiz-adv-x="1928" 
d="M1229 2194h65q160 0 391 -85q189 -92 189 -293q0 -136 -222 -339q-288 -223 -488 -332l-13 -20q215 0 423 -111q196 -183 196 -378v-58q0 -15 -7 -26l7 -13q-35 -237 -287 -476q-13 0 -176 -117q-416 -222 -717 -222q-237 0 -463 182q-117 121 -117 255v45q0 219 306 528
l33 7h19q10 0 20 -20q0 -39 -156 -248q-105 -179 -105 -299q28 -152 92 -209q158 -137 391 -137q181 0 593 196q360 208 430 489q13 45 19 91l-6 13l6 32q0 128 -110 261q-131 104 -385 104q-219 0 -384 -71q-27 0 -105 -261q-203 -521 -287 -521h-71q-10 0 -20 19
q0 21 85 124q155 339 267 678l-6 13v39q52 0 130 521q0 4 7 85q-14 111 -14 150q0 9 20 19h39q78 0 78 -117v-45q0 -155 -78 -535q308 96 789 495q150 147 150 261q0 173 -365 215q-46 7 -131 7h-52q-300 -55 -397 -118q-160 -101 -242 -169l-136 -143q-72 -105 -98 -176
l-13 -7h-20q-69 0 -78 59q27 164 319 410q322 248 685 248z" />
    <glyph glyph-name="C" unicode="C" horiz-adv-x="1358" 
d="M1439 2194h35q188 0 239 -140q14 -67 14 -85q0 -230 -407 -639q-70 -42 -84 -42q-89 0 -127 57v14q0 49 92 56q238 217 344 428q35 83 35 140q0 64 -64 99q-149 -26 -379 -218q-172 -165 -498 -583q-506 -817 -506 -1298q32 -78 92 -78q168 0 582 408q288 266 394 372
q25 21 49 21h14q10 0 21 -21q0 -97 -169 -253q-1 -18 -435 -428q-248 -195 -386 -211h-63q-181 0 -232 161v57q0 435 428 1207q199 309 576 716q299 260 435 260z" />
    <glyph glyph-name="D" unicode="D" horiz-adv-x="1648" 
d="M1578 2198h81q316 0 455 -308q26 -102 26 -147v-7q0 -388 -414 -910q-333 -353 -509 -455q-381 -276 -482 -287q-360 -181 -655 -181q-74 4 -74 60v14q364 417 509 702q46 65 93 167q0 8 -134 61q-167 102 -167 281q0 214 254 468q69 91 214 194q166 125 342 221
q343 127 461 127zM454 1154q0 -106 114 -174q64 -20 80 -20q20 0 101 261q40 153 53 161q15 0 27 6q94 -20 94 -93v-20q0 -19 -94 -308q0 -7 7 -7q358 87 394 87l14 -20v-13q0 -41 -268 -134q-81 -14 -160 -34v7q-60 0 -101 -134q-182 -309 -408 -609q-31 -22 -53 -66h6
q639 164 1218 729q175 177 294 354q235 410 235 616q0 226 -215 328q-116 13 -140 13q-216 0 -582 -187q-178 -110 -395 -315q-221 -265 -221 -428z" />
    <glyph glyph-name="E" unicode="E" horiz-adv-x="1175" 
d="M1013 2198q86 0 188 -218q127 -83 294 -83l15 7q8 0 22 -7q299 15 430 30q68 -6 68 -23v-30q-33 -93 -287 -120q-189 -15 -218 -23q-8 0 -8 8l-52 -8q-95 0 -279 60v-7q-64 -339 -211 -686q670 0 670 -75q0 -98 -105 -98q-278 8 -309 15q-58 -7 -128 -7h-181
q-49 0 -105 -136q-156 -277 -392 -557q0 -21 -45 -68l121 7q379 0 843 -263q8 -13 8 -30q-21 -38 -68 -38q-96 0 -339 105q-251 76 -407 76q-283 -29 -391 -68q-8 -8 -61 -8h-15q-60 14 -60 121q0 22 136 68q401 481 549 783h-135q-17 0 -30 8l-15 -8q-119 0 -151 83v68
q16 30 38 30q163 -15 226 -15h52l46 7l15 -7q57 0 120 196q166 409 166 610v22q0 45 -60 181l-15 53v7q19 38 60 38z" />
    <glyph glyph-name="F" unicode="F" horiz-adv-x="743" 
d="M703 2201h7q42 0 145 -90q178 -55 268 -55q506 28 655 28l21 -28v-14q-78 -75 -166 -75q-172 -28 -448 -55q-230 0 -351 55v-7q0 -165 -138 -731v-14q124 -41 276 -41q36 0 117 7q34 -9 34 -21v-62q-46 -69 -193 -69q-68 0 -282 42q-416 -1172 -607 -1172h-20
q-10 0 -21 21q0 30 90 172q181 336 399 958q186 669 186 868l-6 14l6 35q0 32 -34 151v42q24 41 62 41z" />
    <glyph glyph-name="G" unicode="G" horiz-adv-x="1206" 
d="M1328 2201q89 0 198 -95q31 -54 31 -77v-51q0 -156 -229 -356q-227 -248 -343 -248h-19q-101 0 -128 51v31q0 19 115 32q128 62 223 172l146 146q103 126 115 198q0 82 -102 82q-173 -27 -344 -152q-312 -273 -433 -452q-253 -360 -401 -828q-51 -204 -51 -305
q0 -110 70 -159q99 0 350 229l497 522q32 28 32 38q-26 0 -26 6l-32 -6q-375 0 -477 83v25q4 19 51 19h197q15 0 26 -6q6 0 6 6q7 0 19 -6q240 0 325 38h51q48 0 95 -57v-51q-150 -265 -267 -446q-288 -395 -490 -617q-78 -70 -134 -70q-25 10 -25 19v6q0 35 299 401
l159 223h-13q0 -10 -286 -293q-193 -164 -306 -171q-248 0 -248 261v44q0 279 261 827q18 16 140 242q347 488 700 688q148 57 248 57z" />
    <glyph glyph-name="H" unicode="H" horiz-adv-x="1814" 
d="M1025 2194q119 0 119 -112q0 -225 -238 -814q-13 0 -13 -53q14 0 26 -7q92 7 126 13q6 0 6 -6q66 6 100 6h79q38 0 46 7q36 -7 60 -7h126q41 0 99 -6q25 6 60 6l46 -6l13 6l13 -6q68 0 80 46q178 520 311 801q32 79 46 79q0 5 27 13q112 -11 112 -39v-47
q-110 -176 -205 -430q-93 -213 -271 -695q-259 -698 -259 -900q-6 0 -6 -79v-20q0 -59 -86 -59h-27q-26 0 -26 99q0 161 185 754q31 62 86 245q13 14 33 73v13q-442 33 -840 33q-31 0 -152 -284l-424 -841q-8 0 -119 -212q-57 -79 -146 -79q-26 10 -26 20v20
q148 229 390 734q173 356 285 609q0 7 7 20q-7 0 -7 7l-13 -7h-20q-20 0 -20 7l-33 -7h-159q-145 12 -145 40v6q0 36 443 73q33 39 106 238q99 238 172 609q-7 7 -13 99q6 25 46 40z" />
    <glyph glyph-name="I" unicode="I" horiz-adv-x="657" 
d="M1164 2198q20 -44 20 -60q-48 -49 -179 -80q-220 -565 -413 -1151q0 -5 -173 -525q-16 -8 -106 -320q90 7 133 7h26q14 -2 14 -13v-27q0 -89 -353 -133h-13q-120 0 -120 106v20q0 11 27 27h153l306 991l332 978l-6 14q-49 -11 -140 -20q-146 0 -146 119v7q0 27 26 40h7
q113 -13 126 -13h14q331 33 465 33z" />
    <glyph glyph-name="J" unicode="J" horiz-adv-x="1513" 
d="M966 2200q22 0 139 -93q126 -62 391 -106q762 -73 1101 -133l20 -26v-13q-54 -53 -232 -53q-460 46 -564 46q-19 0 -26 -206q0 -6 -7 -6l7 -14q-80 -416 -126 -490q-34 -126 -199 -418q-179 -295 -398 -550q-319 -345 -617 -345h-40q-227 0 -371 239q-33 76 -33 179
q0 276 351 583q75 86 299 159q59 14 106 14q175 0 232 -106l7 -47q-33 -33 -80 -33q-49 93 -146 93q-186 -30 -398 -226q-232 -274 -232 -457q0 -103 106 -219q89 -86 193 -86q159 0 424 245q282 299 331 418q169 234 312 557q146 432 146 676h7q0 7 -7 7l7 33v13
q-247 20 -319 47l-13 -7q-431 119 -431 265v13q21 47 60 47z" />
    <glyph glyph-name="K" unicode="K" horiz-adv-x="1341" 
d="M606 2198h90q58 0 58 -64v-20q0 -262 -219 -991q173 72 624 444q294 204 502 335h26q9 0 19 -19v-7q0 -71 -77 -129q-96 -77 -96 -90q-291 -200 -676 -528q70 -261 173 -521q65 -153 84 -232q17 -10 52 -116q12 -6 161 -341q57 -92 83 -174q97 -165 97 -206l-7 -64h-38
q-106 111 -258 399q-270 544 -495 1159q-77 -41 -187 -71q-65 0 -65 -64l-231 -618q-99 -247 -213 -290l-13 -6l-6 12q0 56 71 213q161 425 283 798q-6 35 -6 58v19q53 35 83 174q174 622 174 805v38q0 8 -13 71q10 26 20 26z" />
    <glyph glyph-name="L" unicode="L" horiz-adv-x="774" 
d="M858 1947h83q91 0 91 -84q0 -306 -640 -1647l-167 -305h7q298 41 522 41q3 0 27 7q7 0 7 -7l49 7h201q436 0 953 -167l20 -27v-7q-46 -49 -104 -49q-60 0 -417 63q-28 0 -55 6q-7 0 -7 -6q-260 34 -417 34q-12 0 -84 -7q-7 0 -7 7l-34 -7h-7q-230 0 -410 -27q-7 0 -7 6
q-325 -55 -397 -55q-69 39 -69 83v35q0 53 76 63q299 544 605 1320q160 480 181 598q-9 54 -21 69v14q4 42 21 42z" />
    <glyph glyph-name="M" unicode="M" horiz-adv-x="2214" 
d="M2353 2200h12q86 0 86 -61q-6 -29 -61 -129q-142 -342 -300 -1047q-166 -739 -166 -1133q5 -131 19 -147q0 -80 -55 -80h-7q-85 21 -85 202v19q0 473 263 1592q12 22 86 306q-53 -50 -270 -447l-177 -269l-129 -178q-76 -110 -147 -110h-18q-160 24 -160 159v18
q1 289 80 613v6h-6l-288 -655q-146 -274 -386 -613q-259 -349 -484 -349q-126 0 -153 141q0 182 141 533q111 245 184 245q35 0 61 -31v-30q0 -16 -123 -221q-134 -354 -134 -459v-37q0 -17 12 -37q206 0 649 705q196 334 558 1219q66 119 110 251q43 18 61 18
q65 -22 74 -49v-12q-74 -254 -166 -741q-43 -173 -61 -411v-61q4 -80 24 -80q72 54 221 282q150 217 257 417q204 340 441 655z" />
    <glyph glyph-name="N" unicode="N" horiz-adv-x="1909" 
d="M1316 2000h62q67 0 98 -70q0 -21 -70 -174q-83 -322 -139 -607q-7 -91 -21 -91q0 -7 7 -7q-56 -364 -56 -544v-70q0 -40 7 -111q0 -7 -7 -7q14 -187 49 -286l14 -14q88 31 230 362q188 303 509 1103q67 111 77 111h49q0 -5 7 -42q-16 -201 -335 -927q-12 -2 -160 -321
q-124 -239 -175 -314q-58 -91 -209 -91q-168 37 -168 140q-14 0 -41 279l7 34q-7 87 -7 91q0 235 48 565v7q-127 -231 -314 -537q-307 -530 -516 -530h-63q-130 0 -181 139q-7 38 -7 77q0 379 216 558q23 14 42 14h63q9 0 35 -35v-14q0 -24 -98 -125q-105 -194 -105 -370
q7 -133 56 -140q127 49 321 335q384 599 496 872q136 292 237 649q18 91 42 91z" />
    <glyph glyph-name="O" unicode="O" horiz-adv-x="1575" 
d="M1573 2200q244 0 377 -256q22 -74 22 -98v-98q0 -37 -22 -203l15 -8h90q161 0 655 188l53 15l15 -22v-30q-100 -114 -241 -166q-306 -121 -482 -121h-90l-53 8q-117 -297 -241 -505q-123 -220 -459 -564q-263 -271 -429 -347q-73 -43 -271 -90q-390 0 -482 271
q-8 58 -23 98q0 7 8 7l-8 38v45q0 286 392 829q276 330 436 421q211 154 475 279q-23 79 -23 150q0 144 158 144q0 12 128 15zM1460 1966v-15q77 23 211 23h38q42 0 52 -38q0 -83 -82 -83q-10 0 -181 -37v-8q83 -151 233 -218q38 -15 53 -15q21 46 45 203q-7 97 -30 113
q0 17 8 30q0 73 -113 128q-67 8 -83 8q-151 0 -151 -91zM158 310v-8q0 -271 241 -271q374 0 1031 798q204 283 316 610v15q-194 64 -376 301q-317 -124 -693 -474q-255 -291 -391 -550q-128 -265 -128 -421z" />
    <glyph glyph-name="P" unicode="P" horiz-adv-x="1430" 
d="M1763 2194h12q6 0 6 -6l13 6h6q347 0 581 -355q55 -124 55 -202q0 -302 -477 -648q-39 -43 -331 -202q-74 -35 -128 -67l-361 -159q-86 -31 -275 -74q-31 -69 -92 -171q-165 -297 -330 -502q-76 -24 -110 -24h-19q-18 6 -18 37q138 154 391 630h-134q-194 18 -422 165
q-129 123 -141 196l18 12h6q36 -15 104 -92q236 -189 441 -189q78 6 86 12l12 -6q111 0 128 73q286 512 386 789q153 390 153 563q0 9 18 18q128 0 128 -73q0 -264 -348 -979q-39 -51 -172 -318h7q439 142 887 434q267 200 391 398q64 105 74 196q0 169 -196 330
q-142 98 -343 98q-281 0 -642 -159q-14 -17 -116 -67q-143 -86 -355 -294q-115 -128 -129 -220q-20 -12 -36 -12q-86 8 -86 73q42 241 538 569q414 220 820 220z" />
    <glyph glyph-name="Q" unicode="Q" horiz-adv-x="1534" 
d="M1641 2198q192 0 253 -110q0 -21 -26 -58v-7q68 -72 90 -207q15 -110 20 -110l-7 -45v-45q0 -327 -369 -764q-344 -356 -582 -550q-80 -65 -149 -110v-20q0 -307 220 -362h78q42 0 188 32l6 -13v-25q-45 -91 -201 -91h-13q-228 0 -368 214q-26 72 -52 181
q-194 -104 -369 -104q-120 16 -227 97q-129 171 -129 382v45q0 390 459 991q332 339 518 440q194 123 434 207q117 13 226 32zM140 528l6 -13v-25q0 -15 -6 -26q56 -343 207 -343q73 0 285 90q84 42 90 71q0 217 78 343q102 182 201 182h38q52 -37 52 -72v-19
q-91 -64 -162 -175q-51 -140 -51 -161h6q221 182 421 368q230 222 323 363q227 324 227 563v97q0 208 -175 285h-13q-208 0 -498 -149q-198 -99 -518 -401q-233 -271 -323 -447q-148 -274 -162 -401q-4 0 -26 -130z" />
    <glyph glyph-name="R" unicode="R" horiz-adv-x="1482" 
d="M1486 2201h21q313 0 490 -199q119 -149 119 -404q0 -286 -595 -644q-412 -227 -659 -293q0 -19 155 -216q248 -284 343 -375q85 -106 231 -222q76 -81 77 -123q21 -4 21 -47l-14 -6q-64 14 -336 234q-109 89 -224 211q-266 274 -386 451l-14 6q-146 -252 -273 -440
q-36 -24 -161 -181q-120 -123 -210 -123q0 -6 -28 -6h-49v29q271 249 413 510q63 93 161 263v6q-41 0 -56 35q0 27 98 41q158 292 224 521q32 170 43 170h28q64 0 105 -59v-11q0 -162 -190 -562h7q60 11 260 105l301 152q140 78 315 229q241 221 266 398q0 368 -287 433
q-106 12 -168 12q-305 0 -750 -229q-320 -193 -497 -433q-112 -186 -112 -263l-14 -6h-49q-51 0 -91 47v23q11 146 273 433q223 207 336 264q187 109 379 175q288 94 497 94z" />
    <glyph glyph-name="S" unicode="S" horiz-adv-x="1814" 
d="M1820 2198q211 -34 211 -92q19 0 46 -80v-42q0 -156 -434 -540q-134 -98 -178 -98h-13q-85 10 -85 80q0 16 125 92q312 258 381 386q36 47 66 129v18q-66 6 -66 18q-7 0 -7 -6q-7 0 -19 6q-269 -13 -697 -214q-119 -44 -408 -251q-201 -179 -256 -325q-13 -49 -13 -61
q0 -178 473 -239q461 -72 539 -141q153 -88 217 -264v-104q0 -437 -1512 -784l-256 -49q-7 0 -7 6l-46 -6h-26q-51 0 -92 43v12q33 33 243 74q572 120 947 269l230 111q145 60 296 208q92 104 92 171q6 0 6 7q0 204 -348 281q-250 37 -506 86q-261 76 -336 202
q-52 83 -52 153q0 293 605 650q364 183 558 227q91 42 322 67z" />
    <glyph glyph-name="T" unicode="T" horiz-adv-x="1061" 
d="M3041 2194l12 -19v-20q0 -24 -231 -90q-660 -90 -1338 -218q-23 -34 -58 -136q-174 -378 -296 -675q-19 -22 -200 -470q-70 -146 -109 -251q0 -6 -122 -283l-155 -360q-65 -86 -96 -90q-26 10 -26 19q0 128 238 669l560 1358q45 79 77 180h-13q-717 -135 -843 -148
l-135 -19q-6 0 -6 6l-77 -6q-179 0 -219 148q0 199 322 341q60 19 109 19q19 -24 19 -45v-19q0 -65 -90 -84q-214 -129 -218 -206v-6q0 -20 90 -20q195 0 1068 181l817 135v-7q395 71 920 116z" />
    <glyph glyph-name="U" unicode="U" horiz-adv-x="1500" 
d="M1319 2198h18q49 0 49 -55q0 -29 -237 -146q-101 -56 -323 -274q0 -18 -103 -121q-45 -75 -152 -213q-426 -668 -426 -1126h-6l6 -12v-25q0 -6 -6 -6l6 -12v-30q0 -171 176 -219h6q150 33 280 158q180 184 408 505q112 155 292 475q93 141 170 365q71 140 110 140
q109 -10 109 -49v-43l-85 -146q-91 -126 -243 -681q-43 -126 -104 -444q0 -6 7 -6q-31 -147 -31 -366q0 -255 61 -255v-55q-34 -6 -49 -6q-102 0 -121 110q-19 133 -19 304q0 249 128 760q-322 -452 -359 -480q-276 -371 -523 -371h-37q-178 0 -274 182q-30 74 -30 128v6
q0 578 432 1223q98 159 274 377q289 290 365 311q147 97 231 97z" />
    <glyph glyph-name="V" unicode="V" horiz-adv-x="1192" 
d="M2380 2194h28q14 -2 14 -14q0 -108 -126 -224q0 -23 -112 -134q-568 -596 -1171 -1339q-102 -115 -358 -435q-217 -252 -372 -252q-7 0 -7 -7q-273 0 -273 273v106q0 313 309 1065q18 17 147 274q271 414 470 414h21q245 -39 245 -246v-49q-29 -252 -119 -252
q-91 0 -91 56q56 167 56 224v14q0 105 -84 133q-115 -19 -288 -238q-188 -251 -379 -764q-147 -464 -147 -638v-63q0 -152 91 -197q125 0 484 463l638 757q421 477 743 807q201 209 281 266z" />
    <glyph glyph-name="W" unicode="W" horiz-adv-x="2383" 
d="M1213 2198h53q26 -11 53 -53v-20q0 -54 -106 -132q-388 -377 -504 -557q-169 -205 -298 -423q-251 -461 -251 -689q0 -59 39 -80q143 0 451 298l285 265q384 371 490 437h66q86 -34 86 -66v-26q0 -15 -99 -199q0 -18 -80 -152q-121 -251 -185 -543q6 -13 6 -20
q-13 -22 -13 -33q0 -166 46 -166q0 -20 67 -26q185 19 516 311q0 12 239 232q1 21 72 79q358 385 603 729q296 430 484 649l13 6h13q13 0 20 -46q-20 0 -46 -106q-124 -177 -133 -225q-52 -57 -271 -404l-378 -490q-15 0 -99 -106q-411 -435 -490 -477q-141 -143 -285 -205
q0 -17 -159 -53q-17 0 -53 -7q-194 0 -272 119q-33 52 -33 126v7q0 303 232 781h-13q0 -11 -278 -265q-483 -478 -576 -490q-46 -31 -146 -46q-265 0 -265 185v66q50 316 185 537q0 58 391 622q176 227 550 603q9 0 73 53z" />
    <glyph glyph-name="X" unicode="X" horiz-adv-x="1859" 
d="M2272 2198h7q15 -2 15 -14v-8q0 -79 -701 -974l-252 -282q231 -546 801 -1299q51 -32 51 -80q43 -36 43 -79l-51 -29q-135 88 -339 354q-178 223 -245 361q-99 135 -181 281q-88 122 -187 347l-15 7q-550 -622 -729 -700q-114 -64 -202 -72q-289 0 -289 238v72
q0 206 130 433q4 0 36 29h36q40 0 58 -43v-44q-80 -155 -108 -368l7 -43v-15q0 -7 -7 -7q30 -137 79 -137q149 20 419 267q303 303 505 542v7q-253 632 -253 989l8 14q-8 50 -8 80v21q58 58 123 58l51 -29q-8 -133 -8 -195v-36q0 -242 188 -729q20 -43 29 -43
q139 154 693 837l217 238q35 51 79 51z" />
    <glyph glyph-name="Y" unicode="Y" horiz-adv-x="1482" 
d="M1287 2204h12q10 0 25 -24q0 -39 -152 -200q0 -10 -127 -133q-351 -460 -351 -805q35 -200 170 -200q0 -6 36 -12q6 0 6 6l30 -6q379 0 902 630q0 13 55 79q0 12 84 127q103 198 267 375l30 6q85 -21 85 -67q0 -39 -182 -272l-678 -981q-176 -242 -460 -562
q-163 -189 -230 -237q-208 -204 -327 -242q-93 -42 -151 -42h-36q-213 0 -279 182q-12 73 -12 115v12q0 294 254 557q289 296 436 296q-127 105 -127 254v6q0 362 333 781q87 103 97 103q227 231 290 254zM960 727q-119 0 -236 61h-6v-6q18 0 18 -30v-12q0 -9 -133 -85
q-130 -83 -302 -279q-170 -248 -170 -429q0 -206 133 -206h12q222 45 473 302q248 241 544 618l182 254v6q-278 -194 -515 -194z" />
    <glyph glyph-name="Z" unicode="Z" horiz-adv-x="1279" 
d="M912 2184h63q42 -33 42 -84q0 -31 -300 -104q-16 -18 -139 -63q-128 -57 -167 -104q169 -56 1003 -202q564 -154 564 -348q0 -113 -648 -237q-513 -118 -863 -279q-321 -169 -321 -264q0 -229 1184 -557q541 -133 1511 -328l223 -62l7 -14v-21q0 -12 -42 -21
q-651 97 -1170 209q-553 97 -1009 251q-857 279 -857 578v14q0 245 905 529q583 139 850 230q1 13 49 20q-53 75 -335 154l-1037 202q-195 63 -195 167q0 79 111 132q382 188 522 188q0 12 49 14z" />
    <glyph glyph-name="bracketleft" unicode="[" horiz-adv-x="1241" 
d="M636 2198q72 -18 555 -54l12 -18v-29q0 -60 -161 -60h-96q-59 0 -232 18q-12 -6 -18 -6v-36q0 -260 -209 -1199q-77 -376 -167 -716q-30 -118 -36 -167q7 0 18 -6q397 30 519 30q42 -8 42 -24v-47q0 -47 -543 -84h-6q-146 0 -161 48v41q0 19 36 96q203 850 322 1491
q66 390 66 591q-24 8 -24 53v36q0 42 77 42h6z" />
    <glyph glyph-name="backslash" unicode="\" horiz-adv-x="1157" 
d="M70 1441h50q70 -76 396 -529q272 -378 378 -553q70 -83 94 -139l107 -138v-51q0 -15 -63 -31h-25q-40 0 -119 145q-10 1 -76 119l-667 963q-88 119 -88 170v31q2 13 13 13z" />
    <glyph glyph-name="bracketright" unicode="]" horiz-adv-x="1164" 
d="M592 2198q78 0 78 -42v-36q0 -45 -24 -53q0 -201 66 -591q119 -641 322 -1491q36 -77 36 -96v-41q-15 -48 -161 -48h-6q-544 37 -544 84v47q0 16 42 24q122 0 520 -30q11 6 18 6q-6 49 -36 167q-90 340 -167 716q-209 939 -209 1199v36q-7 0 -18 6q-174 -18 -233 -18h-96
q-161 0 -161 60v29l12 18q484 36 555 54h6z" />
    <glyph glyph-name="asciicircum" unicode="^" horiz-adv-x="1014" 
d="M532 1346h24q8 -1 8 -8v-72q0 -310 132 -692q33 -69 96 -172v-36q-4 -12 -24 -12h-4q-47 0 -60 32q-73 81 -132 276q-48 162 -80 444h-4q-72 -219 -180 -628q-8 -16 -12 -16h-36q-6 0 -12 12v32q0 147 196 732q9 6 24 60q23 44 28 44q22 4 36 4z" />
    <glyph glyph-name="underscore" unicode="_" horiz-adv-x="1268" 
d="M19 -81q103 -20 216 -20h416q277 0 588 -12l4 -8v-40q0 -8 -8 -8h-712l-40 -4v4l-8 -4q-16 0 -72 4q-16 0 -72 -4q-52 4 -84 4l-40 -4q-196 0 -196 48v32z" />
    <glyph glyph-name="grave" unicode="`" horiz-adv-x="1024" 
d="M275 2197q60 -28 244 -216q53 -51 80 -88v-8q0 -22 -28 -40h-8q-4 0 -132 132q-132 124 -188 152q-12 13 -12 20q24 48 44 48z" />
    <glyph glyph-name="a" unicode="a" horiz-adv-x="1059" 
d="M741 662q75 -22 75 -75v-27l-157 -253q-62 -97 -62 -136v-28l34 -7h14q91 0 334 137q62 48 116 48l14 -21v-54q-75 -115 -218 -171q-142 -75 -246 -75q-128 0 -191 116v55h-14q-171 -144 -307 -144h-27q-94 0 -157 137v75q0 148 252 327q171 75 253 75h68q89 -8 89 -68
v-7q0 -27 -184 -34q-256 -105 -287 -198q-33 -27 -55 -136q10 -48 28 -48h20q123 21 416 294q99 132 123 197q49 21 69 21z" />
    <glyph glyph-name="b" unicode="b" horiz-adv-x="888" 
d="M558 1431h6q42 0 42 -54v-6q-200 -476 -370 -795v-18h6q138 91 279 91q101 0 158 -109q18 -34 18 -79q0 -122 -79 -231h6q18 0 219 110q44 30 85 30l6 -12v-49q0 -40 -140 -115q-285 -194 -661 -194q-273 0 -273 42q-6 11 -6 31v48q0 17 224 395q290 568 383 806
q60 109 97 109zM0 109l78 -12q219 29 316 91q126 77 170 224q12 23 12 49v18q-10 67 -67 67q-68 0 -255 -115q-193 -163 -212 -231q-42 -64 -42 -91z" />
    <glyph glyph-name="c" unicode="c" horiz-adv-x="839" 
d="M346 668q146 0 220 -87v-33q0 -19 -53 -27q-21 0 -114 40q-139 0 -287 -214q-27 -79 -27 -133v-14q34 -120 147 -120h81q129 2 474 281q59 13 80 13l7 -13v-14q0 -60 -107 -147q-242 -227 -434 -227h-34q-250 0 -321 140q-20 29 -33 127q0 193 261 388q85 40 140 40z" />
    <glyph glyph-name="d" unicode="d" horiz-adv-x="1098" 
d="M849 1385h7q108 0 108 -36v-22q0 -18 -108 -295q-53 -237 -245 -570q-58 -95 -58 -224q0 -77 50 -115h22q99 0 281 180q218 202 231 202q12 7 36 7q15 -24 15 -43q0 -91 -246 -318q-163 -151 -324 -151q-195 39 -195 159q-10 50 -22 50q-191 -195 -375 -195h-7
q-126 0 -173 152v14q0 195 245 397q109 79 246 79h36q55 0 72 -36v-36q0 -17 -94 -36v7q-193 -41 -260 -137q-101 -105 -108 -216q8 -72 58 -72h7q161 30 390 332q69 105 230 562q40 122 152 339z" />
    <glyph glyph-name="e" unicode="e" horiz-adv-x="878" 
d="M464 654q142 -19 142 -101q0 -114 -121 -196q-111 -94 -236 -94h-27q-88 13 -108 33h-7l-6 -47v-33q0 -79 101 -95q139 0 633 250q60 33 101 33q27 -10 27 -20v-47q-75 -94 -189 -148q-394 -189 -572 -189q-157 0 -230 155q-13 36 -13 94q0 207 270 357q168 48 235 48z
M154 371h7q170 0 290 148v13h-7q-137 0 -290 -148v-13z" />
    <glyph glyph-name="f" unicode="f" horiz-adv-x="663" 
d="M963 1431q142 0 222 -115q15 -78 15 -101q-24 -179 -115 -179h-22q-10 0 -21 29q21 100 21 165v14q0 37 -36 65q-279 0 -646 -431q-145 -200 -165 -294h29q26 0 65 7q7 0 7 -7l194 28h100q50 0 50 -64q0 -67 -366 -94h-136q-156 -404 -216 -452q-7 0 -21 -7
q-72 10 -72 50q165 428 165 452q-100 43 -172 130v21q0 39 29 50h21q53 0 173 -86q244 554 696 761q91 43 201 58z" />
    <glyph glyph-name="g" unicode="g" horiz-adv-x="735" 
d="M411 649h23q31 0 110 -87l6 -11q0 -22 -46 -93q-22 -53 -75 -133v-5h5q284 132 341 132h6q9 0 23 -23q0 -60 -162 -127q-415 -192 -433 -260q-202 -173 -248 -173q-148 -98 -399 -162q-25 -11 -92 -17q-58 39 -58 46v18q0 48 248 167l416 214v6l-40 -6h-64
q-109 17 -109 109q10 67 115 162q145 151 318 214q72 29 115 29zM-22 244v-5q2 -12 12 -12q184 54 346 249q15 0 69 80h-5q-171 -53 -341 -208q-81 -100 -81 -104z" />
    <glyph glyph-name="h" unicode="h" horiz-adv-x="840" 
d="M522 1498h25q51 0 51 -70q-129 -271 -402 -785q-13 -21 -13 -32q189 172 332 172q83 0 115 -83v-45q0 -70 -115 -242q-136 -169 -185 -268v-7q11 -25 45 -25q126 0 370 287l77 70l64 51h19q12 0 25 -38q0 -92 -281 -364q-156 -121 -242 -121h-7q-176 0 -204 115v13
q0 100 198 338q102 160 102 198h-6q-74 0 -243 -160q-277 -282 -300 -364q-25 -12 -44 -12q-43 0 -77 51v44q105 144 204 364q100 205 211 409q194 373 268 491q2 13 13 13z" />
    <glyph glyph-name="i" unicode="i" horiz-adv-x="506" 
d="M421 1239h19q52 -44 52 -90q0 -77 -71 -188q-108 -173 -188 -173h-13q-92 0 -103 111q56 95 97 146q9 27 58 27h13l45 -6q49 62 71 159zM123 607q110 0 110 -62q0 -12 -77 -118q-132 -199 -149 -257h7q52 0 426 271q66 55 123 55q19 -25 19 -48v-7q0 -131 -517 -403
q-64 -14 -110 -14q-116 15 -116 97v7q0 128 207 396q44 83 77 83z" />
    <glyph glyph-name="j" unicode="j" horiz-adv-x="423" 
d="M255 1179h24q86 -59 86 -183q0 -72 -135 -226q-61 -37 -98 -37q-109 33 -109 98q16 49 79 128q0 5 67 43l31 -6q36 58 36 85v80q0 8 19 18zM126 660q45 0 68 -37q-11 -111 -92 -262v-7q293 171 330 171h6q9 0 18 -18v-12q0 -59 -214 -183q-221 -129 -244 -153
q-129 -221 -171 -275q-165 -178 -330 -293q-168 -110 -268 -110h-31q-55 0 -55 73q37 127 183 263q189 197 293 244q74 57 159 104q141 63 196 196q129 296 152 299zM-698 -397h6q147 63 379 312l85 116h-6q-272 -154 -464 -428z" />
    <glyph glyph-name="k" unicode="k" horiz-adv-x="811" 
d="M308 1595h20q61 0 95 -55q0 -214 -149 -629q0 -10 -54 -163q212 149 223 149q11 7 34 7h20q14 -2 14 -13v-68q-159 -174 -298 -251h-20q38 -291 81 -399q39 -50 47 -61q131 0 373 332q8 0 47 54q88 102 129 102h13q20 -7 20 -41q0 -74 -230 -366q-126 -189 -304 -189
q-160 0 -237 128q-34 77 -61 264h-7l-129 -223q0 -30 -40 -61q-129 -230 -264 -230l-7 14v20q225 314 372 670q-6 12 -6 27q0 32 47 61q244 611 244 887v7q0 10 27 27z" />
    <glyph glyph-name="l" unicode="l" horiz-adv-x="630" 
d="M467 1363q66 0 92 -49v-28q-79 -171 -254 -474l-170 -346q-63 -134 -113 -296v-43q87 0 467 276q149 91 169 91h21q14 -2 14 -14v-21q0 -75 -169 -184q-350 -275 -509 -275q-148 31 -148 134q8 96 177 481l240 452q143 266 162 282q0 14 21 14z" />
    <glyph glyph-name="m" unicode="m" horiz-adv-x="1269" 
d="M162 764h41q34 -20 34 -63q0 -22 -81 -214l-34 -92q215 170 306 173h46q69 0 92 -115q-6 -12 -6 -18h6q151 121 271 121h18q86 -14 86 -69v-40q0 -71 -133 -364q-17 -40 -23 -81q9 -23 18 -23q100 0 479 387q0 6 23 17h28q12 -2 12 -11q0 -87 -75 -168
q-237 -255 -352 -311q-47 -29 -121 -29q-88 0 -133 98v40q0 75 98 283l58 150q-132 -22 -283 -213q-69 -87 -81 -162l-28 -23h-35q-31 0 -63 58v11q0 16 51 139q29 63 58 190v12q-108 -21 -335 -243q0 -9 -69 -115q0 -55 -29 -75h-63q-52 33 -52 75q87 218 87 265
q126 322 144 393q21 17 40 17z" />
    <glyph glyph-name="n" unicode="n" horiz-adv-x="907" 
d="M203 702h7q42 -23 42 -30v-30q-45 -148 -109 -274h12q0 14 103 85q139 97 225 97q118 0 134 -85q0 -85 -103 -280l-55 -133h18q160 96 420 285l36 7h25q18 0 18 -55q-86 -131 -353 -298q-99 -55 -158 -55q-152 0 -152 103q63 177 152 359q6 20 6 43q-223 -96 -432 -377
q-28 -61 -73 -61q-91 6 -91 36v31q6 29 103 231q25 83 165 377q25 24 60 24z" />
    <glyph glyph-name="o" unicode="o" horiz-adv-x="687" 
d="M263 653h45q77 -48 77 -92q65 -63 193 -63q70 0 167 23q64 0 64 -46q-45 -80 -225 -80q-115 11 -167 29q0 -118 -192 -321q-96 -103 -232 -103h-13q-122 29 -122 109q-6 7 -6 40v17q0 126 199 355q148 132 212 132zM-13 126l13 -23q107 32 250 252q13 21 32 92
q-20 63 -38 63q-257 -203 -257 -384z" />
    <glyph glyph-name="p" unicode="p" horiz-adv-x="989" 
d="M298 670q190 0 319 -119q37 -56 37 -161q-47 -128 -150 -214h-6v-12q37 0 438 226q23 12 50 12h19q12 -2 12 -12v-42q-130 -140 -338 -238q-99 -71 -369 -113l-143 -12q-66 6 -144 6h-38q-27 -28 -100 -161q-178 -278 -269 -393q-78 -72 -119 -72q-72 0 -81 30v18l75 59
q130 141 325 495q115 178 282 584q-7 33 -7 48q0 33 188 71h19zM54 116q12 0 44 -12q111 21 219 95q140 75 194 221q6 10 6 24v6q0 85 -144 113h-25q-138 0 -138 -101q-64 -150 -144 -304q-12 -17 -12 -42z" />
    <glyph glyph-name="q" unicode="q" horiz-adv-x="926" 
d="M343 654h50q124 -63 124 -75q13 -32 13 -50q0 -100 -131 -275q0 -11 -75 -143q-43 -74 -43 -81h6q476 372 711 436h25q12 -1 12 -12q0 -79 -112 -125q-89 -76 -268 -174q-341 -256 -443 -374q-13 -1 -218 -250q-98 -181 -144 -187h-37q-34 0 -50 25v19q0 65 187 324
l168 299v7q-13 -5 -68 -13q-169 27 -169 112v31q0 174 237 424q115 82 225 82zM19 124q178 64 318 318q0 9 43 93v13q-113 0 -224 -131q-137 -159 -137 -293z" />
    <glyph glyph-name="r" unicode="r" horiz-adv-x="639" 
d="M161 703q33 -17 33 -80q79 33 93 33h40q100 0 139 -93q15 -86 33 -86q136 73 179 73h7q13 -2 13 -13v-53q-76 -115 -172 -133h-20q-166 16 -166 146q0 33 -20 33q-100 -49 -205 -192q-138 -192 -179 -278q-30 -60 -40 -60h-66q-60 25 -60 66v7q26 78 126 232l192 398h73z
" />
    <glyph glyph-name="s" unicode="s" horiz-adv-x="649" 
d="M224 665q99 0 144 -66v-30q0 -8 -30 -30h-12q-35 0 -72 24h-72q-102 -55 -120 -114q0 -34 180 -72q102 -44 102 -137l-6 -30q276 149 317 149q12 -2 12 -12v-36q0 -57 -186 -155q-191 -112 -491 -150l-12 6q-89 -12 -197 -12q-90 0 -132 48v24q0 8 18 18h108
q240 0 407 132q30 31 30 53q-26 16 -198 66q-84 58 -84 120q0 116 192 198q70 6 102 6z" />
    <glyph glyph-name="t" unicode="t" horiz-adv-x="462" 
d="M615 1719h33q14 -2 14 -13v-27q0 -128 -275 -672q-54 -156 -101 -242q40 -6 40 -13l47 7h114q130 0 195 13q7 0 7 -7l33 7h269q81 0 81 -27v-20q0 -67 -477 -94q-74 -20 -296 -20h-67q-13 -7 -127 -302q-68 -190 -128 -296q-54 -13 -67 -13q-41 0 -74 47v27
q27 24 188 409q87 197 121 296q141 334 336 718q93 180 120 209q3 13 14 13z" />
    <glyph glyph-name="u" unicode="u" horiz-adv-x="869" 
d="M135 654h36q34 -13 53 -47v-12q0 -28 -149 -298q-41 -92 -41 -142v-42h6q60 0 238 232q100 112 190 286l18 11h47q62 -21 72 -53v-54l-113 -166q-69 -93 -101 -191h6q51 0 464 286q19 12 29 12q36 0 48 -36q0 -111 -399 -351q-78 -30 -107 -30h-53q-28 0 -95 42h-12
q-95 -93 -191 -101h-23q-123 0 -161 107v95q0 6 6 6l-6 12q37 142 178 357q38 64 60 77z" />
    <glyph glyph-name="v" unicode="v" horiz-adv-x="716" 
d="M17 669h5q85 0 85 -113q12 0 17 -358v-5h6q221 362 221 391q0 32 40 57h34q76 0 91 -102q22 -63 85 -63q123 17 164 17h6q7 0 28 -28v-23q-31 -62 -119 -62q0 -12 -40 -12h-5q-100 0 -199 80q-11 -3 -108 -182q-75 -141 -164 -255q-10 0 -34 -11q-114 0 -125 147
q-11 299 -22 426h5q-11 25 -11 73q9 23 40 23z" />
    <glyph glyph-name="w" unicode="w" horiz-adv-x="1556" 
d="M249 698h30q30 -16 31 -25v-12q0 -74 -67 -115q-225 -313 -225 -437l31 -18q81 5 291 188q108 114 218 255q28 0 37 6q78 0 78 -55v-36q-95 -136 -139 -291q9 -37 48 -37q143 58 340 352q67 128 85 128h24q71 0 79 -55v-6q0 -38 -73 -255q-12 -48 -12 -115q5 -49 43 -49
q191 79 358 213q10 0 145 79h55q12 -2 12 -13v-6q0 -76 -218 -206q-217 -176 -334 -176q-138 0 -188 103l-12 85q-167 -188 -267 -188h-43q-169 24 -169 140q-7 0 -7 12h-6q-163 -164 -321 -164h-6q-129 0 -158 79q-10 0 -12 42q0 117 115 310q87 136 188 236q16 31 49 31z
" />
    <glyph glyph-name="x" unicode="x" horiz-adv-x="678" 
d="M433 657h53q8 0 30 -30v-29q0 -53 -326 -327v-18q27 -178 77 -178q88 33 208 131q123 121 202 178h35q9 0 18 -18v-42q-108 -173 -297 -297q-87 -59 -184 -59h-36q-110 0 -148 178l-6 12q-81 -55 -184 -142q-10 -6 -30 -6h-42q-53 11 -53 29v18q0 32 107 101
q172 147 172 154v12l-53 167l-6 23q24 48 65 48q55 0 107 -143l12 -6h18q0 10 101 95z" />
    <glyph glyph-name="y" unicode="y" horiz-adv-x="935" 
d="M191 647q55 0 55 -69v-7q-178 -222 -207 -353q-7 0 -7 -7l7 -13l-7 -35q7 -30 34 -35q191 56 491 450l28 21q92 0 124 -56v-41q-97 -131 -97 -138h7q17 0 187 96q104 49 138 49h7q35 -18 35 -56v-6q-32 -77 -166 -132l-387 -228q-42 -30 -132 -138q-254 -263 -394 -318
q-41 -40 -359 -173h-14q-71 27 -83 55v42q1 24 124 110q417 306 471 353q-153 42 -153 152v21q0 195 256 456h42z" />
    <glyph glyph-name="z" unicode="z" horiz-adv-x="878" 
d="M31 689q119 -50 164 -50l14 7q8 0 8 -7l85 7h229q92 -50 92 -100q0 -46 -114 -93q-112 -62 -135 -85q133 0 207 -86q14 0 14 -28q31 0 214 107h21q107 -76 107 -86v-7q0 -13 -299 -179q-134 -77 -250 -185q-68 -89 -300 -278q-19 0 -164 -107q-13 0 -71 -36l-79 -43h-43
q-14 0 -14 21q27 51 50 193q39 27 264 214q321 226 343 257q22 18 64 93v21h-22q-73 0 -335 -92q-128 12 -128 85v36q0 7 149 100q182 135 200 135v15l-43 -7q-292 19 -292 121v28q9 29 64 29z" />
    <glyph glyph-name="braceleft" unicode="{" horiz-adv-x="1384" 
d="M1189 2198l11 -3q3 0 18 3q73 -6 73 -23v-9q-16 -21 -32 -21q-20 3 -32 3q-143 0 -335 -114q-193 -125 -193 -340q0 -282 -27 -317q-9 -53 -79 -159q-86 -116 -200 -179q-72 -41 -76 -41q0 -4 76 -17q79 -42 103 -109q0 -12 6 -70q-18 -81 -59 -150q-141 -223 -164 -314
q-18 -52 -18 -100v-17q0 -7 -3 -12q10 -143 77 -241q39 -55 94 -82q83 -41 237 -41l6 -9v-6q-16 -29 -88 -29q-141 0 -243 91q-84 77 -121 235l-8 73v41q0 155 129 352q111 184 111 232q0 70 -67 100q-26 14 -173 23q-21 20 -21 33v20q2 4 88 41q94 44 194 126
q136 136 167 288q12 80 12 135q-3 63 -3 88h3l-3 6q0 224 117 317q99 95 167 120q144 73 250 73q0 3 6 3z" />
    <glyph glyph-name="bar" unicode="|" horiz-adv-x="1183" 
d="M943 2201h26q8 0 17 -16v-48l-183 -895q-171 -988 -235 -1285q-59 -145 -75 -145q0 -12 -48 -16h-6q-48 0 -48 54q72 133 118 380q219 1271 353 1800q46 171 81 171z" />
    <glyph glyph-name="braceright" unicode="}" horiz-adv-x="1145" 
d="M147 2195q94 0 222 -73q61 -25 149 -120q105 -93 105 -317l-3 -6h3q0 -25 -3 -88q0 -55 10 -135q28 -152 149 -288q89 -82 173 -126q77 -37 78 -41v-20q0 -13 -18 -33q-131 -9 -154 -23q-60 -30 -60 -100q0 -48 99 -232q115 -197 115 -352v-41l-8 -73q-32 -158 -107 -235
q-91 -91 -217 -91q-64 0 -78 29v6l5 9q137 0 212 41q48 27 83 82q59 98 68 241q-2 5 -2 12v17q0 48 -16 100q-21 91 -147 314q-36 69 -52 150q5 58 5 70q22 67 92 109q68 13 68 17q-4 0 -68 41q-101 63 -178 179q-62 106 -70 159q-24 35 -24 317q0 215 -172 340
q-171 114 -298 114q-11 0 -29 -3q-14 0 -29 21v9q0 17 65 23q14 -3 16 -3l10 3q6 0 6 -3z" />
    <glyph glyph-name="asciitilde" unicode="~" horiz-adv-x="1289" 
d="M338 1108h2q151 0 222 -162q39 -78 87 -231q75 -213 176 -213h2q113 0 336 217q53 56 76 56h5q3 0 6 -13v-8q0 -44 -54 -99q-37 -47 -163 -158q-128 -85 -184 -85q-118 0 -178 128q-27 36 -74 179q-88 304 -233 304q-114 0 -241 -171l-67 -128l-9 -5h-15q-5 0 -11 47v26
q15 46 72 137q129 179 245 179z" />
    <glyph glyph-name="exclamdown" unicode="&#xa1;" horiz-adv-x="672" 
 />
    <glyph glyph-name="cent" unicode="&#xa2;" horiz-adv-x="1139" 
 />
    <glyph glyph-name="dieresis" unicode="&#xa8;" horiz-adv-x="1024" 
d="M299 1376q108 -17 108 -76q4 0 4 -16v-12q0 -103 -108 -152l-40 -8q-73 0 -100 116l4 20l-4 8q21 108 72 108q25 8 64 12zM747 1364q112 -45 112 -120v-16q0 -38 -60 -116q-34 -16 -72 -24q-37 5 -84 40q-41 45 -44 88q17 92 44 92q45 56 104 56z" />
    <glyph glyph-name="copyright" unicode="&#xa9;" horiz-adv-x="2443" 
d="M1991 2197q398 0 398 -258v-10q0 -196 -235 -474q58 0 126 -78q44 -75 44 -180q0 -255 -197 -568q-65 -100 -208 -259q-565 -572 -1123 -572q-416 0 -653 313q-143 198 -143 449v38q0 263 153 568q323 568 956 831q199 81 399 132q287 68 473 68h10zM78 591v-7
q0 -378 296 -595q181 -126 405 -126q498 0 1031 514q207 219 273 340q58 85 126 276q34 125 34 190v44q0 96 -79 181q-5 0 -30 20h-7q0 -10 -140 -139q-74 -62 -105 -62h-10q-28 16 -28 21v7q0 30 52 58q225 214 241 258q177 232 177 378q0 133 -197 173q-59 7 -96 7h-10
q-416 0 -956 -238q-186 -98 -242 -139q-122 -79 -265 -211q-155 -155 -235 -273q-82 -119 -143 -262q-92 -228 -92 -415zM1834 1860q81 0 113 -71v-20q0 -120 -150 -290q-83 -108 -266 -262q-207 -165 -330 -194q-27 -13 -64 -13h-24q-31 4 -31 30v17q2 6 116 41
q142 59 347 242q214 203 272 313q48 71 48 119q-10 11 -34 20q-91 -8 -300 -126q-146 -80 -364 -258q-193 -169 -316 -320q-293 -360 -293 -582q0 -105 106 -133q0 -3 3 -3h20q161 0 579 327l17 3h17q20 -2 20 -10v-27q-86 -97 -234 -198q-235 -160 -378 -160h-58
q-174 35 -174 198v40q0 229 351 647q256 267 378 351q417 319 629 319z" />
    <glyph glyph-name="ordfeminine" unicode="&#xaa;" horiz-adv-x="648" 
 />
    <glyph glyph-name="glyph103" horiz-adv-x="1109" 
 />
    <glyph glyph-name="glyph104" horiz-adv-x="1109" 
 />
    <glyph glyph-name="registered" unicode="&#xae;" horiz-adv-x="2436" 
d="M1358 2195h2q142 0 275 -40v-38q0 -7 -28 -7h-22q-154 27 -222 27q-288 0 -675 -264q-111 -90 -179 -154q-81 -78 -161 -184q-282 -394 -282 -745q0 -172 85 -378q44 -88 98 -159q93 -117 202 -197q183 -121 317 -148q125 -41 227 -41h3q7 0 7 -2l13 2h65q41 0 189 33
q166 52 265 116q69 34 217 154q51 41 105 98q73 70 172 202q128 184 199 357q98 262 98 461q0 300 -197 512q-137 120 -252 151q-142 36 -216 38q-84 -8 -114 -8h-5q-5 0 -5 5v30q0 18 174 18q259 0 449 -166q86 -85 98 -116q41 -51 68 -116q65 -148 65 -370v-3
q0 -286 -158 -610q-71 -138 -187 -292q-70 -89 -184 -199q-141 -121 -239 -181q-135 -81 -244 -119q-174 -55 -340 -55q-393 0 -698 242q-142 131 -179 194q-164 247 -164 531v56q0 210 116 468q76 160 204 328q68 86 176 186q149 129 222 167q45 32 134 78q92 54 246 103
q104 35 260 35zM1366 1946h98q64 -2 148 -35q41 -25 76 -61q38 -37 38 -128v-33q0 -106 -124 -292q-85 -114 -229 -247q-188 -166 -340 -245v-2q78 -41 169 -129q219 -233 282 -320q138 -183 139 -211v-28q0 -28 -8 -28h-40q-18 10 -76 104q-96 129 -179 229
q-28 28 -143 159q-170 181 -293 181q-133 -303 -189 -398q-28 -28 -32 -28h-38q-5 0 -5 5v23q0 31 40 106q140 290 237 531q101 280 101 351q10 53 25 153l5 3h50q8 -3 8 -15v-31q0 -73 -35 -246q-61 -221 -129 -368h3q21 3 148 80q93 63 159 116q85 70 154 139
q78 80 131 148q112 151 133 273v22q0 69 -70 116q-77 40 -157 40q-123 -4 -307 -75q-3 -4 -50 -23q-70 -36 -129 -73q-73 -36 -232 -199l-80 -98l-15 -3h-20q-31 0 -31 10v43q41 70 182 204q98 88 214 151q65 38 186 81q84 33 225 48z" />
    <glyph glyph-name="macron" unicode="&#xaf;" horiz-adv-x="670" 
 />
    <glyph glyph-name="plusminus" unicode="&#xb1;" horiz-adv-x="1014" 
 />
    <glyph glyph-name="uni00B2" unicode="&#xb2;" horiz-adv-x="1014" 
 />
    <glyph glyph-name="uni00B3" unicode="&#xb3;" horiz-adv-x="1014" 
 />
    <glyph glyph-name="acute" unicode="&#xb4;" horiz-adv-x="1024" 
d="M559 2203q13 0 44 -44q-28 -64 -296 -300l-24 -4l-24 28q0 26 192 200q0 5 60 64q31 55 48 56z" />
    <glyph glyph-name="mu" unicode="&#xb5;" horiz-adv-x="1180" 
 />
    <glyph glyph-name="periodcentered" unicode="&#xb7;" 
d="M291 770h12q106 -24 106 -105v-12q-48 -135 -123 -135h-47q-29 13 -53 53v35q0 21 6 53l-6 11q14 94 59 94q22 6 46 6z" />
    <glyph glyph-name="periodcentered" unicode="&#x2219;" 
d="M291 770h12q106 -24 106 -105v-12q-48 -135 -123 -135h-47q-29 13 -53 53v35q0 21 6 53l-6 11q14 94 59 94q22 6 46 6z" />
    <glyph glyph-name="uni00B9" unicode="&#xb9;" horiz-adv-x="1014" 
 />
    <glyph glyph-name="ordmasculine" unicode="&#xba;" horiz-adv-x="718" 
 />
    <glyph glyph-name="onequarter" unicode="&#xbc;" horiz-adv-x="1708" 
 />
    <glyph glyph-name="onehalf" unicode="&#xbd;" horiz-adv-x="1964" 
 />
    <glyph glyph-name="threequarters" unicode="&#xbe;" horiz-adv-x="1708" 
 />
    <glyph glyph-name="questiondown" unicode="&#xbf;" horiz-adv-x="748" 
 />
    <glyph glyph-name="Agrave" unicode="&#xc0;" horiz-adv-x="1540" 
 />
    <glyph glyph-name="Aacute" unicode="&#xc1;" horiz-adv-x="1540" 
 />
    <glyph glyph-name="Acircumflex" unicode="&#xc2;" horiz-adv-x="1540" 
 />
    <glyph glyph-name="Atilde" unicode="&#xc3;" horiz-adv-x="1540" 
 />
    <glyph glyph-name="Adieresis" unicode="&#xc4;" horiz-adv-x="1540" 
 />
    <glyph glyph-name="Aring" unicode="&#xc5;" horiz-adv-x="1540" 
 />
    <glyph glyph-name="AE" unicode="&#xc6;" horiz-adv-x="2118" 
 />
    <glyph glyph-name="Ccedilla" unicode="&#xc7;" horiz-adv-x="1399" 
 />
    <glyph glyph-name="Egrave" unicode="&#xc8;" horiz-adv-x="1151" 
 />
    <glyph glyph-name="Eacute" unicode="&#xc9;" horiz-adv-x="1151" 
 />
    <glyph glyph-name="Ecircumflex" unicode="&#xca;" horiz-adv-x="1151" 
 />
    <glyph glyph-name="Edieresis" unicode="&#xcb;" horiz-adv-x="1151" 
 />
    <glyph glyph-name="Igrave" unicode="&#xcc;" horiz-adv-x="657" 
 />
    <glyph glyph-name="Iacute" unicode="&#xcd;" horiz-adv-x="657" 
 />
    <glyph glyph-name="Icircumflex" unicode="&#xce;" horiz-adv-x="657" 
 />
    <glyph glyph-name="Idieresis" unicode="&#xcf;" horiz-adv-x="657" 
 />
    <glyph glyph-name="Eth" unicode="&#xd0;" horiz-adv-x="1518" 
 />
    <glyph glyph-name="Ntilde" unicode="&#xd1;" horiz-adv-x="1554" 
 />
    <glyph glyph-name="Ograve" unicode="&#xd2;" horiz-adv-x="1614" 
 />
    <glyph glyph-name="Oacute" unicode="&#xd3;" horiz-adv-x="1614" 
 />
    <glyph glyph-name="Ocircumflex" unicode="&#xd4;" horiz-adv-x="1614" 
 />
    <glyph glyph-name="Otilde" unicode="&#xd5;" horiz-adv-x="1614" 
 />
    <glyph glyph-name="Odieresis" unicode="&#xd6;" horiz-adv-x="1614" 
 />
    <glyph glyph-name="multiply" unicode="&#xd7;" horiz-adv-x="1158" 
d="M1087 1292h28q6 0 12 -12v-28q-17 -48 -380 -372l-128 -120q0 -10 140 -244l128 -228v-24q0 -36 -36 -36h-24q-48 28 -168 260q-8 8 -120 200q-367 -340 -400 -340q-32 -8 -40 -8h-16q-48 0 -48 36v32q2 9 68 32q69 49 200 176q84 66 176 156q-58 100 -208 256
q-36 0 -36 44v12q0 28 36 44h44q41 -19 168 -176q0 -5 76 -108q332 307 504 440q13 8 24 8z" />
    <glyph glyph-name="Oslash" unicode="&#xd8;" horiz-adv-x="1614" 
 />
    <glyph glyph-name="Ugrave" unicode="&#xd9;" horiz-adv-x="1501" 
 />
    <glyph glyph-name="Uacute" unicode="&#xda;" horiz-adv-x="1501" 
 />
    <glyph glyph-name="Ucircumflex" unicode="&#xdb;" horiz-adv-x="1501" 
 />
    <glyph glyph-name="Udieresis" unicode="&#xdc;" horiz-adv-x="1501" 
 />
    <glyph glyph-name="Yacute" unicode="&#xdd;" horiz-adv-x="1233" 
 />
    <glyph glyph-name="Thorn" unicode="&#xde;" horiz-adv-x="1120" 
 />
    <glyph glyph-name="germandbls" unicode="&#xdf;" horiz-adv-x="1251" 
 />
    <glyph glyph-name="agrave" unicode="&#xe0;" horiz-adv-x="922" 
 />
    <glyph glyph-name="aacute" unicode="&#xe1;" horiz-adv-x="922" 
 />
    <glyph glyph-name="acircumflex" unicode="&#xe2;" horiz-adv-x="922" 
 />
    <glyph glyph-name="atilde" unicode="&#xe3;" horiz-adv-x="922" 
 />
    <glyph glyph-name="adieresis" unicode="&#xe4;" horiz-adv-x="922" 
 />
    <glyph glyph-name="aring" unicode="&#xe5;" horiz-adv-x="922" 
 />
    <glyph glyph-name="ae" unicode="&#xe6;" horiz-adv-x="1454" 
 />
    <glyph glyph-name="ccedilla" unicode="&#xe7;" horiz-adv-x="905" 
 />
    <glyph glyph-name="egrave" unicode="&#xe8;" horiz-adv-x="909" 
 />
    <glyph glyph-name="eacute" unicode="&#xe9;" horiz-adv-x="909" 
 />
    <glyph glyph-name="ecircumflex" unicode="&#xea;" horiz-adv-x="909" 
 />
    <glyph glyph-name="edieresis" unicode="&#xeb;" horiz-adv-x="909" 
 />
    <glyph glyph-name="igrave" unicode="&#xec;" horiz-adv-x="514" 
 />
    <glyph glyph-name="iacute" unicode="&#xed;" horiz-adv-x="514" 
 />
    <glyph glyph-name="icircumflex" unicode="&#xee;" horiz-adv-x="514" 
 />
    <glyph glyph-name="idieresis" unicode="&#xef;" horiz-adv-x="514" 
 />
    <glyph glyph-name="eth" unicode="&#xf0;" horiz-adv-x="1139" 
 />
    <glyph glyph-name="ntilde" unicode="&#xf1;" horiz-adv-x="1108" 
 />
    <glyph glyph-name="ograve" unicode="&#xf2;" horiz-adv-x="1010" 
 />
    <glyph glyph-name="oacute" unicode="&#xf3;" horiz-adv-x="1010" 
 />
    <glyph glyph-name="ocircumflex" unicode="&#xf4;" horiz-adv-x="1010" 
 />
    <glyph glyph-name="otilde" unicode="&#xf5;" horiz-adv-x="1010" 
 />
    <glyph glyph-name="odieresis" unicode="&#xf6;" horiz-adv-x="1010" 
 />
    <glyph glyph-name="divide" unicode="&#xf7;" horiz-adv-x="1496" 
d="M716 1165h16q81 0 124 -84q4 -15 4 -32v-16q-20 -112 -48 -112q-61 -52 -96 -52h-20q-48 0 -108 72q-12 36 -12 60v4q0 106 124 156q7 4 16 4zM1376 781h40l48 -16v-36q0 -42 -716 -68q-188 -8 -248 -16q-456 0 -456 36l-16 20v44q0 6 16 16h12q130 -16 144 -16l40 4h176
q861 32 960 32zM704 489q30 -1 96 -64q28 -59 28 -68v-16q-29 -84 -60 -84q-7 -14 -68 -32h-4q-94 0 -132 96q0 4 4 4l-4 20v36q6 42 36 76q26 32 104 32z" />
    <glyph glyph-name="oslash" unicode="&#xf8;" horiz-adv-x="1010" 
 />
    <glyph glyph-name="ugrave" unicode="&#xf9;" horiz-adv-x="1059" 
 />
    <glyph glyph-name="uacute" unicode="&#xfa;" horiz-adv-x="1059" 
 />
    <glyph glyph-name="ucircumflex" unicode="&#xfb;" horiz-adv-x="1059" 
 />
    <glyph glyph-name="udieresis" unicode="&#xfc;" horiz-adv-x="1059" 
 />
    <glyph glyph-name="yacute" unicode="&#xfd;" horiz-adv-x="868" 
 />
    <glyph glyph-name="thorn" unicode="&#xfe;" horiz-adv-x="1010" 
 />
    <glyph glyph-name="ydieresis" unicode="&#xff;" horiz-adv-x="868" 
 />
    <glyph glyph-name="quoteleft" unicode="&#x2018;" 
d="M369 2194h8q8 -1 8 -8v-52q-20 -32 -92 -232q0 -26 48 -64v-36q-6 -16 -28 -16h-28q-51 0 -80 72q0 18 -4 24q2 55 44 164q42 71 52 76v8l-4 8l40 52q22 4 36 4z" />
    <glyph glyph-name="quoteright" unicode="&#x2019;" 
d="M232 2202h28q45 0 80 -64l4 -40q0 -51 -52 -172q-17 -20 -64 -112l-16 -20h-4q-4 0 -4 4l-8 -4h-28q-8 0 -8 8v40q88 222 88 244h4q0 30 -44 56q-4 7 -4 16v28q7 16 28 16z" />
    <glyph glyph-name="quotesinglbase" unicode="&#x201a;" 
d="M242 117h28q45 0 80 -64l4 -40q0 -51 -52 -172q-17 -20 -64 -112l-16 -20h-4q-4 0 -4 4l-8 -4h-28q-8 0 -8 8v40q88 222 88 244h4q0 30 -44 56q-4 7 -4 16v28q7 16 28 16z" />
    <glyph glyph-name="quotedblleft" unicode="&#x201c;" horiz-adv-x="910" 
d="M389 2198h8q8 -1 8 -8v-52q-20 -32 -92 -232q0 -26 48 -64v-36q-6 -16 -28 -16h-28q-51 0 -80 72q0 18 -4 24q2 55 44 164q42 71 52 76v8l-4 8l40 52q22 4 36 4zM637 2198h20q8 -1 8 -8v-48q-20 -37 -64 -164h-8v-20q-7 -9 -20 -52q0 -32 44 -56q4 -7 4 -16v-28
q-6 -16 -28 -16h-32q-45 0 -76 72l-4 24q9 82 44 164l32 52q0 6 20 28v4l-4 8q6 0 28 40q14 12 20 12q0 4 16 4z" />
    <glyph glyph-name="quotedblright" unicode="&#x201d;" horiz-adv-x="910" 
d="M300 2198h32q46 0 76 -72q0 -28 4 -32q-10 -77 -48 -164l-48 -76l4 -8q-8 0 -24 -36q-3 0 -20 -20q-4 0 -4 4l-8 -4h-28q-8 0 -8 8v52q19 37 72 172q17 56 20 60q0 26 -48 64v36q7 16 28 16zM556 2198h28q45 0 80 -64l4 -40q0 -51 -52 -172q-17 -20 -64 -112l-16 -20h-4
q-4 0 -4 4l-8 -4h-28q-8 0 -8 8v40q88 222 88 244h4q0 30 -44 56q-4 7 -4 16v28q7 16 28 16z" />
    <glyph glyph-name="quotedblbase" unicode="&#x201e;" horiz-adv-x="910" 
d="M304 184h32q46 0 76 -72q0 -28 4 -32q-10 -77 -48 -164l-48 -76l4 -8q-8 0 -24 -36q-3 0 -20 -20q-4 0 -4 4l-8 -4h-28q-8 0 -8 8v52q19 37 72 172q17 56 20 60q0 26 -48 64v36q7 16 28 16zM560 184h28q45 0 80 -64l4 -40q0 -51 -52 -172q-17 -20 -64 -112l-16 -20h-4
q-4 0 -4 4l-8 -4h-28q-8 0 -8 8v40q88 222 88 244h4q0 30 -44 56q-4 7 -4 16v28q7 16 28 16z" />
    <glyph glyph-name="afii61352" unicode="&#x2116;" horiz-adv-x="2271" 
 />
    <glyph glyph-name="trademark" unicode="&#x2122;" horiz-adv-x="1497" 
 />
    <glyph glyph-name="minus" unicode="&#x2212;" horiz-adv-x="919" 
d="M67 549h20q70 -20 186 -20h10l551 20q21 -7 30 -25v-25q0 -37 -601 -60h-91q-120 0 -120 65v30q0 7 15 15z" />
    <glyph glyph-name="uniF001" unicode="&#xf001;" horiz-adv-x="1073" 
 />
    <glyph glyph-name="uniF001" unicode="&#xfb01;" horiz-adv-x="1073" 
 />
    <glyph glyph-name="uniF002" unicode="&#xf002;" horiz-adv-x="1081" 
 />
    <glyph glyph-name="uniF002" unicode="&#xfb02;" horiz-adv-x="1081" 
 />
  </font>
</defs>
</svg>
